<svg width="58" height="58" viewBox="0 0 58 58" fill="none" xmlns="http://www.w3.org/2000/svg">
<path d="M29.0002 0.186279C13.1122 0.186279 0.186523 13.112 0.186523 29C0.186523 44.888 13.1122 57.8137 29.0002 57.8137C44.8882 57.8137 57.814 44.888 57.814 29C57.814 13.112 44.8882 0.186279 29.0002 0.186279ZM29.0002 52.0537C16.2894 52.0537 5.94652 41.7118 5.94652 29C5.94652 16.2882 16.2889 5.94628 29.0002 5.94628C41.7116 5.94628 52.054 16.2887 52.054 29C52.054 41.7113 41.7116 52.0537 29.0002 52.0537Z" fill="white"/>
<path d="M10.704 36.1198C10.332 36.1198 10.02 36.0358 9.76801 35.8678C9.51601 35.6878 9.36001 35.4478 9.30001 35.1478C9.24001 34.8358 9.29401 34.4878 9.46201 34.1038L13.944 24.4558C14.16 23.9878 14.424 23.6458 14.736 23.4298C15.06 23.2138 15.426 23.1058 15.834 23.1058C16.242 23.1058 16.596 23.2138 16.896 23.4298C17.208 23.6458 17.478 23.9878 17.706 24.4558L22.188 34.1038C22.38 34.4878 22.446 34.8358 22.386 35.1478C22.338 35.4598 22.188 35.6998 21.936 35.8678C21.696 36.0358 21.396 36.1198 21.036 36.1198C20.556 36.1198 20.184 36.0118 19.92 35.7958C19.668 35.5798 19.44 35.2318 19.236 34.7518L18.264 32.4658L19.524 33.3838H12.108L13.386 32.4658L12.414 34.7518C12.198 35.2318 11.976 35.5798 11.748 35.7958C11.52 36.0118 11.172 36.1198 10.704 36.1198ZM15.798 26.7238L13.71 31.7098L13.206 30.8458H18.444L17.94 31.7098L15.834 26.7238H15.798ZM26.1065 35.9578C25.5425 35.9578 25.1105 35.8138 24.8105 35.5258C24.5225 35.2258 24.3785 34.7998 24.3785 34.2478V24.9778C24.3785 24.4258 24.5225 24.0058 24.8105 23.7178C25.1105 23.4178 25.5425 23.2678 26.1065 23.2678H29.6345C31.8425 23.2678 33.5465 23.8198 34.7465 24.9238C35.9585 26.0278 36.5645 27.5878 36.5645 29.6038C36.5645 30.6118 36.4085 31.5118 36.0965 32.3038C35.7845 33.0838 35.3345 33.7498 34.7465 34.3018C34.1585 34.8418 33.4325 35.2558 32.5685 35.5438C31.7165 35.8198 30.7385 35.9578 29.6345 35.9578H26.1065ZM27.6905 33.2758H29.4185C30.0545 33.2758 30.6005 33.1978 31.0565 33.0418C31.5245 32.8858 31.9085 32.6578 32.2085 32.3578C32.5205 32.0578 32.7485 31.6798 32.8925 31.2238C33.0485 30.7678 33.1265 30.2278 33.1265 29.6038C33.1265 28.3558 32.8205 27.4378 32.2085 26.8498C31.5965 26.2498 30.6665 25.9498 29.4185 25.9498H27.6905V33.2758ZM43.7849 36.1558C43.3049 36.1558 42.8009 36.1198 42.2729 36.0478C41.7569 35.9878 41.2649 35.8918 40.7969 35.7598C40.3289 35.6278 39.9089 35.4718 39.5369 35.2918C39.2129 35.1358 38.9849 34.9318 38.8529 34.6798C38.7209 34.4158 38.6729 34.1398 38.7089 33.8518C38.7449 33.5638 38.8469 33.3118 39.0149 33.0958C39.1829 32.8678 39.4049 32.7178 39.6809 32.6458C39.9569 32.5618 40.2689 32.5978 40.6169 32.7538C41.0729 32.9698 41.5889 33.1378 42.1649 33.2578C42.7409 33.3778 43.2809 33.4378 43.7849 33.4378C44.5769 33.4378 45.1289 33.3358 45.4409 33.1318C45.7649 32.9158 45.9269 32.6518 45.9269 32.3398C45.9269 32.0638 45.8129 31.8418 45.5849 31.6738C45.3689 31.5058 44.9789 31.3618 44.4149 31.2418L42.3089 30.7918C41.1569 30.5518 40.2989 30.1318 39.7349 29.5318C39.1709 28.9318 38.8889 28.1578 38.8889 27.2098C38.8889 26.5858 39.0149 26.0218 39.2669 25.5178C39.5309 25.0018 39.8969 24.5638 40.3649 24.2038C40.8449 23.8438 41.4089 23.5678 42.0569 23.3758C42.7169 23.1718 43.4489 23.0698 44.2529 23.0698C44.8769 23.0698 45.5069 23.1418 46.1429 23.2858C46.7909 23.4178 47.3489 23.6218 47.8169 23.8978C48.0929 24.0418 48.2909 24.2398 48.4109 24.4918C48.5309 24.7438 48.5789 25.0078 48.5549 25.2838C48.5309 25.5478 48.4349 25.7818 48.2669 25.9858C48.1109 26.1898 47.8949 26.3278 47.6189 26.3998C47.3549 26.4598 47.0369 26.4118 46.6649 26.2558C46.3169 26.0998 45.9209 25.9858 45.4769 25.9138C45.0449 25.8298 44.6249 25.7878 44.2169 25.7878C43.7729 25.7878 43.3949 25.8418 43.0829 25.9498C42.7709 26.0458 42.5309 26.1898 42.3629 26.3818C42.2069 26.5738 42.1289 26.7958 42.1289 27.0478C42.1289 27.2998 42.2309 27.5158 42.4349 27.6958C42.6509 27.8638 43.0409 28.0078 43.6049 28.1278L45.6929 28.5778C46.8569 28.8298 47.7269 29.2438 48.3029 29.8198C48.8789 30.3958 49.1669 31.1458 49.1669 32.0698C49.1669 32.6938 49.0409 33.2578 48.7889 33.7618C48.5369 34.2658 48.1769 34.6978 47.7089 35.0578C47.2409 35.4058 46.6769 35.6758 46.0169 35.8678C45.3569 36.0598 44.6129 36.1558 43.7849 36.1558Z" fill="white"/>
<rect x="46.5562" y="6.95776" width="4" height="56" rx="2" transform="rotate(45 46.5562 6.95776)" fill="white"/>
</svg>
